<mxfile host="app.diagrams.net" modified="2023-04-14T03:45:43.286Z" agent="Mozilla/5.0 (Windows NT 10.0; Win64; x64) AppleWebKit/537.36 (KHTML, like Gecko) Chrome/111.0.0.0 Safari/537.36" etag="39lVPuAaoPyNLQbSh5B3" version="21.1.7" type="device">
  <diagram name="Page-1" id="XGxFsxo_uWMlhiJtI92u">
    <mxGraphModel dx="1534" dy="727" grid="0" gridSize="10" guides="1" tooltips="1" connect="1" arrows="1" fold="1" page="0" pageScale="1" pageWidth="850" pageHeight="1100" background="#CC99FF" math="0" shadow="0">
      <root>
        <mxCell id="0" />
        <mxCell id="1" parent="0" />
        <mxCell id="nRbIThMoSpIRHnOlbc1B-9" style="edgeStyle=orthogonalEdgeStyle;rounded=0;orthogonalLoop=1;jettySize=auto;html=1;" edge="1" parent="1" source="nRbIThMoSpIRHnOlbc1B-2" target="nRbIThMoSpIRHnOlbc1B-5">
          <mxGeometry relative="1" as="geometry" />
        </mxCell>
        <mxCell id="nRbIThMoSpIRHnOlbc1B-2" value="" style="verticalLabelPosition=bottom;html=1;verticalAlign=top;align=center;strokeColor=#9673a6;fillColor=#6666FF;shape=mxgraph.azure.laptop;pointerEvents=1;" vertex="1" parent="1">
          <mxGeometry x="-203" y="395" width="133" height="86" as="geometry" />
        </mxCell>
        <mxCell id="nRbIThMoSpIRHnOlbc1B-10" style="edgeStyle=orthogonalEdgeStyle;rounded=0;orthogonalLoop=1;jettySize=auto;html=1;entryX=0;entryY=0.5;entryDx=0;entryDy=0;" edge="1" parent="1" source="nRbIThMoSpIRHnOlbc1B-5" target="nRbIThMoSpIRHnOlbc1B-6">
          <mxGeometry relative="1" as="geometry" />
        </mxCell>
        <mxCell id="nRbIThMoSpIRHnOlbc1B-11" style="edgeStyle=orthogonalEdgeStyle;rounded=0;orthogonalLoop=1;jettySize=auto;html=1;entryX=0.004;entryY=0.891;entryDx=0;entryDy=0;entryPerimeter=0;" edge="1" parent="1" source="nRbIThMoSpIRHnOlbc1B-5" target="nRbIThMoSpIRHnOlbc1B-8">
          <mxGeometry relative="1" as="geometry" />
        </mxCell>
        <mxCell id="nRbIThMoSpIRHnOlbc1B-5" value="" style="dashed=0;outlineConnect=0;html=1;align=center;labelPosition=center;verticalLabelPosition=bottom;verticalAlign=top;shape=mxgraph.webicons.github;gradientColor=#DFDEDE" vertex="1" parent="1">
          <mxGeometry x="46" y="386.8" width="102.4" height="102.4" as="geometry" />
        </mxCell>
        <mxCell id="nRbIThMoSpIRHnOlbc1B-12" style="edgeStyle=orthogonalEdgeStyle;rounded=0;orthogonalLoop=1;jettySize=auto;html=1;" edge="1" parent="1" source="nRbIThMoSpIRHnOlbc1B-6" target="nRbIThMoSpIRHnOlbc1B-8">
          <mxGeometry relative="1" as="geometry" />
        </mxCell>
        <mxCell id="nRbIThMoSpIRHnOlbc1B-6" value="" style="shape=image;verticalLabelPosition=bottom;labelBackgroundColor=default;verticalAlign=top;aspect=fixed;imageAspect=0;image=data:image/png,iVBORw0KGgoAAAANSUhEUgAAAOMAAABRCAYAAAAgjBEyAAAAAXNSR0IArs4c6QAAAARnQU1BAACxjwv8YQUAAAAJcEhZcwAAFiUAABYlAUlSJPAAAAt7SURBVHhe7Zzdjx5VHcfPvnTf2t2Wtgq0WKAVqGArsQmoCZioSSVR443cgIkmxivhH9CLXsiFt6iJMd4JeuGFkppAoxIV1PAiliq0aIv0zRYo3W532+57PZ/ZOd3Ts2eemXn22e55tt9PMnlm5+U3Z878vud3zu/MbMc3vvmty0YIsex09D12UGIUIgE6818hxDIjMQqRCBKjEIkgMQqRCBKjEIkgMQqRCBKjEIkgMQqRCBKjEIkgMQqRCBKjEIkgMQqRCBKjEIkgMQqRCBKjEIkgMQqRCBKjEIkgMQqRCBKjEIkgMQqRCBKjEIkgMQqRCBKjEIkgMQqRCMv+T4wP7dlmbl2/Kv9rjj//56LZ/cNj+V9CXB8oMgqRCBKjEIkgMQqRCBKjEImw7AmcMHkDR89O5WtCXD+0VIxkRkOeemkkE9d3H9qYb5ln95PHzE8fudncuuFqQR79YErZVHHd0bJuKhEutpTus0KMba/L1+9fm68J0Z6siDEjQiTCxiKzEO3CihCj6wITVfc9tiVbF6LdaHsxEhX9ru2DdwxkUVKIdqNlCZyisR7Jm7r76mRTEV5svEgCiNfqlgKuRzR+4tkz5ucvjeRblw/XAJEs+74tk2hPaouRh87DD9m+50hLs6nffvqU2ff4wi5nKIAiMXIMNpaCS09uz365L+57uaFrzjNJpTx1uc0+/6/sHDSDfZ3m3+9Oml+9dj7fs7zce0uf+cL21aanu8O8dnzcPPfGWL5naajdTSWShUvRdpbSfQXZ1Nh2t88ntg1wzu/ZBoAFwfIbE+1KoqguUgcR9q3qMB12fcPqrrmNCbC2v9OsskLstAW7FuVaEQmcGDgm0ZjFdSsRJdEbYQqRGm0vxhcO1xsXOpG2axQRK5e2F2MzCRTGnXWSREJcC2oncGLJGxIuECZioNE+sp3N2HNCIrq5LmhVqn64jG03buV6fma2agLHt8H5zTQAjcrhcAkc6H/8UPZbhLMXs+PDcS4pVPXYsGF026GRnR2be81D96wxPV0d5szYjPnJC8P5nuXls7bsn9k2YGyxzH+t3z398tJmzkvFmGU7baWmRkzEZZSJB7Abe3GAc93UQZkYq9gog0aGug+J2agiRp4h9txxsakfjnFj7BCuS3Y6Jij33xoQI72OogYSG2TQ+fUJxfiLV0bMA7acWzf0mIGeDtPZ2WGmpi+bMxemzesnJsw/jo/nZy6EDCj3ODYxa/a9OWZOnpvO9yzEHTtpbf/u0AVz5P3JfM8cMTHedWOP2bWl39y0tst0k9mxjI7PmkPvTpq/HLmY2WqWUjG6im5nqoqAxE5ZlMWWqw/WfTGGDl9EkVNCMzbKxBgTdihGzo81ID5cK6xHyuumtNhf5iuINXwOvhhHrYguW48c6ouPoHDWd6ww9h4YNeetCEIeuW+tud1G/hl74F+tOP7UIKo/vGvI3Pnhnmx9/4lx89t/Xj114YuRayLwj93cm/0dQrmGL86Y31tRMz3TDKVjxrLKTRGcDGdjwTkRTJkQcURfiDgWLT2L77SN6iMUETbcvGhogznUmK06NmIRzCe7jr2vUIjYKxMi+911KQNgjzoqykb798M5vg3Ws20lCbfB3s5MiDj3hclZ897otPngwoyZnmWLjR52YV7ySzsGs78Xw6qYqgq4cajb3J0LcdIqnQhO2bLGw+7H0vqBLvPFu9eYbR+aE3hdSiOj65K1E7EuWCNCZ8SBQvFmjh0ICOdykTGMPlVs4KT+iwm+DWzHuoWcyzGM+9x+yu4E7CJjLMpzLOc4cTn88zmG+vPhmn7X0y8b+8KXPWI2GuFHRkCE2Pj7sfnuKALdbR39DhvJ6B0iiOdtFHrVOwbqREZ3LJRFRsDmodMT5g/2un5U3rVlrru7umcuth0fnjK/fPV87S5raWSkUtoJylu3zL4QcaJYFMUB6RYW4Quxqg0c3IkAfBsxIUJmw9qnEYjtzwRv7ycUIo0D54VC9MuAvZiIOIf7wQa4BiFGkY2qTFmPf/HIpauECDj/M7ZrevLcXPkR7tYmI1AzIKuDpybMr/cv7B5TVu57PBcfUXTnpt5svQ5tP7UR8sRzC0VQFSo05uAOnBKRhOCcjio2nFPDgx+dEwKicIRd0joQpXyBY4doGWsc4IH8+vDUyyPZvRQtdDFDMYcspv6Bbl+YSHEQaRi7EaGAbuG14vylWfPK0Uv5XwtBkO+cmW8ottj6qkupGOtOqi8nZUKI4YugzNEgZt93/ir15Y+bfDE4WlnnZfcURmbEXLQQcREl8Ouf62i2EXHM2qBz1o4Rizh7ccbM5ONH3hltxumbYfjSTMPMLJwcmboyth3qrx/nyrupbSJGnK6Z7pFzLjhWQYw+V+ZDPRtVBO3O86lroxH++TQ2jV7/86+7WBYrxLp02LFcPruw5IxP5uG4AWRbcy2avu4lEGPMcVIk1n2sQlmUCvGjgXN630YV5y6z4bquzeDGk359NMqA+gJivepCV5vflEGsraJ3VbmxXhup3VEuQtahXIzWWVKv9MU4ht/YkKEswxes6076Nh71ur1FPHrf/DHN2ijC1QPjTn9sWiRIv0vMmBExV1mKxqDLDXOUQAZ0qG9xY8pzdpw4nQ9Q+YJjfcmXGzcNdZvuPPUamwMto1IsbTbqXAtwusU4ht/YENWKsoRARPPHmO68ujb8yFhko6xr6dsows+AAiIPz/MjMoJtFNkb7UsFxpQuJiGOIgFtXNOVCawRTFHQ9YR1/V1m10f6svUYzC2yIEWiYtn4MkYlMeIo/kNNhXCerll8G4iNZIXvtE4c/hQI9UG9OJqxwTlFNhAGoo7ZcMmUKoKkjliA87Hpi4oGwD1btjMPGjYEbHdJHJaUOW7rc3xqTo4I7nN3zn0c7MOcJR8NI7BGkEh689RElr1lbHqvFeOnt/bne+fZvK7bfP6u1dkLC/D+6EzDzGsRlV8Udw/Kf5DLSauE6EBAYURDKLH7xYHpqoW0wgZCCOcIi2xw/9SDL8zY63Cc6wsbe+FrfLFnW3Rd/xrsdwItuqcy6rwoHr4698zro9l0h89XPzFo7tnUm0UpnPvi5Kw5MTydvSjAebfc0G0GejqvjO8gNukPCPlrnxzK3vrheIaCiPT0+enMNh9Gb1rbndkFIumzb4yZt5p4Ja5SZAQeTCudfzHwwFtdFpwaB+U+HTFHJIoUORw22LcYG3QtubcqNlzEK8M9O2cTe35UZTsvI7gI6Qivmx3XQGx+mZeT59+6kAkUsSAR3ozhBe8dVqD88jdjS970KYO5Td6DZe4TIRIhibgft7awd5utIydExom8ndOMEKGr+/7v7MnXS6GyuWyV7tFSwPU/9YN3zIGTE/mW1jJiB+x7D4xl9hm8rxvoyrax/PiPw9mEdpkAKCM2OId1Z+PAiYksQVLFBtd3NjJspfvlQFh7vVacrOGXdw5m24vqhnOxuXOzHffY439k7Vyxb2Gd8aNL6PA3CS3uwZX94Z+dzP724Th8gmO5t3B/FYhSt2/syaLQMTtOO3i62JmnbZGJUqttl/DEuSnz4uGF3cEJKyAE0WEr5gZb/9iljICgRqxo/vb2RRvdZrIoOWGHd3wNQrSLgb1//W8ieztosK/L9K+yUTU3iODpFvPVxm/2j9pxZv2xoqP294wQ644tJTzgqp8eCRGCGLdascPbZyYX9ZmTg67pgG0QDr/XXBSM0ZQYgegYJgNajUQorieaFiO4sUdZSrwOToD8Vh0TCbESWJQYHQiRMQOT2U6gVUF0THgzVmHM4ubahLjeaIkYQ5w43br7RXjgfiU8IeZZEjEKIepTeZ5RCLG0SIxCJILEKEQiSIxCJILEKEQiSIxCJILEKEQiSIxCJILEKEQiSIxCJILEKEQiSIxCJILEKEQiSIxCJILEKEQiSIxCJIEx/wf8UNVbiXl9/AAAAABJRU5ErkJggg==;" vertex="1" parent="1">
          <mxGeometry x="288" y="397.497811686198" width="227" height="81" as="geometry" />
        </mxCell>
        <mxCell id="nRbIThMoSpIRHnOlbc1B-18" style="edgeStyle=orthogonalEdgeStyle;rounded=0;orthogonalLoop=1;jettySize=auto;html=1;" edge="1" parent="1" source="nRbIThMoSpIRHnOlbc1B-7" target="nRbIThMoSpIRHnOlbc1B-13">
          <mxGeometry relative="1" as="geometry" />
        </mxCell>
        <mxCell id="nRbIThMoSpIRHnOlbc1B-7" value="" style="image;sketch=0;aspect=fixed;html=1;points=[];align=center;fontSize=12;image=img/lib/mscae/Kubernetes.svg;" vertex="1" parent="1">
          <mxGeometry x="410" y="183" width="126.04" height="121" as="geometry" />
        </mxCell>
        <mxCell id="nRbIThMoSpIRHnOlbc1B-16" value="" style="edgeStyle=orthogonalEdgeStyle;rounded=0;orthogonalLoop=1;jettySize=auto;html=1;" edge="1" parent="1" source="nRbIThMoSpIRHnOlbc1B-8" target="nRbIThMoSpIRHnOlbc1B-7">
          <mxGeometry relative="1" as="geometry" />
        </mxCell>
        <mxCell id="nRbIThMoSpIRHnOlbc1B-8" value="" style="shape=image;verticalLabelPosition=bottom;labelBackgroundColor=default;verticalAlign=top;aspect=fixed;imageAspect=0;image=data:image/png,iVBORw0KGgoAAAANSUhEUgAAAKUAAAA7CAYAAAAaR0rpAAAAAXNSR0IArs4c6QAAAARnQU1BAACxjwv8YQUAAAAJcEhZcwAAFiUAABYlAUlSJPAAABs3SURBVHhe7Zx5lBzVecVv9b53z/R0zz7TmkWj2TRaQUggjBYsEMZACGDsEOMFm5zEPtmdkz+cnGwnTpxz4sQxAWLANmI1thFggQgCgRFo38VoNLtm33tfq3JfdY802mVJM0iTvqKY6qpX1dVVv7rf97163dKCBTcpyCqrq0iazN+ssrpqlIUyq6tOVweUksRJA0mrhaTTQ9KLyZCe+BpcDg0PVbTLatbr080pBYgEEHojJJMZMJohGY2EUJcGUOGhpVJQ4jEgFoESjQCcV5JxQJYzO8lqtunTgZLASQaCaHVAcrigWGyQDXrIOg1kOqKs4Xr+U5vKCjQEUJPiFI9DCoegBCaghPxQYtEsnLNQMw6lRBeU7C5IOW7ITheSeh2ShDGpUSBnorPCf2ml0VQnRYKW/OkJpzaegDYQgDI2AjkwDiTonFnNGs0olBLDsybXCyXPi7jZiLhOQkoigmLKtDmfJuHUsbE+BRjCMUgCzJEBhvZwOtxndc1rxgodyWyFtqAUcmERIjYjIgYanEamO14ckEKinWgfp6tGmIqGbSak8guhLSyDhilAthCaHZoRKFUg80uRyMtDyKRFgsW0jU6pF1X1JUomonHG87BRg4TbDU1hqfo+WTCvfU07lKKg0XoKkXTnImJi7kgOC90u+DxuGJhPTpXAyUjccpFEPuJgxgn9eXxUrBFuG9ZLSObkQpNfrL5fVte2pjen1GhVIOWiEoTNOgKkoMSdg0KXE60DQxgNhZkGKiqM+VIct+gmsFrnRyGBFNV2NKGgXTHhf4nnNjgxdh5E9bIG1hgr9L7jSA0cV7uSsro2Na1QiipbUzIHEacVUVYnbrsN1QUeNPcNYCxIINlGYLZUG8SjhgHUayO07szh8I+cZM4ZTyGsaPARHNhA/zwIK/3zzBAtlhgEmP4w5K42KKIqzxY+16S0BQXlf5OZv6IST2M0uflI5OYgapBgMugxx+tB/7gfQ/7gCSCFO/6xfQw1nlxoc7yZmBzj/ziTYU8vyyhBDMV00GFuNcQpdRYwxaZavRG6RApKKJDtw7xGNT05pegcN5mhOJxI6JlE8nW+08FwnMBgIACZDibeuEYTwUOGYfgsBmitDmgMZrprDslKH5YkOtG1hI/bC4DnI4j10gjmIAqtiuCpEpV5jCmC4syBlK3Gr1lNC5TqM2xCljKb1E5xi8kAi8GAYQKZZK4oZJZk5o8TqCeY6qPEZIJUMQ8Uf6fwJgnAM0dpYhHUpASxkHDa6JVnk+j3TFnM0IinReJ5eVbXnK74VRMQmax2WD1eSGYD30GCk3DGkkmE4wkomZCaKyWwhlBKJFCJBiGPD3EaZC44nIZzqqY4npchvAYhtUI/kX9OkXDLlE4Dc54HdreHtdaldzvNXmlhYCSzWi2ZyQzDVRRVrnihYzAaMX/ZCrhq6rB3sBf9/jEU5bgQiseZSwaQoCuKO2GpNoD/MndAO1mMnOOcKLLCYkemk57MD3fDjidYo++lXybOsqFdZ8JyXyWKmAa89fJzCE5MZNZcrDSw53qQ53bASKaVeBDH+4YRitDFr2npYc1xw5NbhNoFFch3mSCyIyCCvm0H0RwYxVDfEPwnPibhNXpROsfGLc+UQvNIREMYHxnHRCh2jtj12+uKQ2m127H+gS+hqL4Rv963E+0DvcixWDASDGIsxMqYEIreybu1w/grfR+9Lm3WEkOzxFA/GaonJaBMxQSU4pU4gwpaGcj/BwV4X3IyuzzT7N106vtv/Away3z4/nf+hCe6N7PmIqXNx7qHv4lvPrQa5XZmFP3b8Xff/SHe3NkOHsq1KZ0VnsI6rLnvfty3fgHKXCxEp97PchLDR7fi5Seewc8/aMewOpzAidLKP8NjL9+MIrXRqZLjIQx1HsSWVzdj85btaB4ap/lkVl6Gzryily0JGo2Wk4YfWgODTqeCmGTYnqR/jhLFYgKIvCpoSudDU9LAz1/Gdswap95ubKLIPES9HZJ3DrS+RmjLGuDOKcA8nYI8knrWDyAKJE5q6L6EsGQsqoevphpu1kpCuvwqfK4xD8W2aThdMyIdcqtW4Et/+kf4xu8uhc+lQ4Jp0vGODhw71oaufj8iihZ581bhG3/z1/jy8jLGotPFaxiPYGJoFMOcRke5jWyEp/p6PPCtb+Gv/vRurKrPgY0Z2+XqincJifBd09gEu9eLY/29CEXDBFRCMBpFnKHboyTwB5pxrFyyBM7b7oNh4Qro65ZAW1wBORSBPDpMrJMqS4rCjFPvhG7edTCtugvGZathaFwKs7cIBcExhAIT6JS1iJ5mrxYeQwNdMt+Vgw83b0KYBdbFy4jqlSvxuduvR6Uj88RJMsNi7sGOna3oHY2duLmuGTl8WPfg/bh3VT08ZhnB3sN4f9NGvPjyJmx+70Psa5tA0FyIimIrr58blTVudG/ZgpaQCc7c5bjjPh8hTcDf2YwPnnsD7+w9iANHCPNQlBfcAofLhXxfNXy2CI4f7UDPWJxx79I1/VBGQuqg8WAsznwyiTuTo/idWh+8934ZQaMFH+zei9FonHfcPBjyvEh1d0IhcCKUywpDTPl8mNfcjQDdcR/v6oFACDmV8+B2OZHb04YjoSj6JdFhdNIRLwtKeyWWr/os1i7lhWClH4gRQY0ONosVozt340jPGB0i0zajwvolWDC3HKUlXjglGd55TZhfX405xQ7oIgMYDbGRlhe40IeG+XVorK1CVaUPvmIPbIoVeUVlBGEOfPk2+ANBRONqrpKWvRC1jfVoqp+L6upKVHO7smK+jyGFwGiQqFxYedetwz2fvwXzC02Qwn1459kf4QfPvou9LT3o7R1A+5E9+OBoAtevvh7FZg10NhsMw+/g1/tTp0A5cWg3Nn3vCTx34BD27tmDDz8+gFa/CYUVZShy2+H2epDsbUFze9+UvPS317RDGVCh1CBMKJPJBB5N9KPm3oegL63AwcOH8eijj6KzqwuLl17Hi1MCeWQQqd52huUkFIMD+sYV0M6/Dnv27cP3v/997Ny9GzW1tSicWwtHTysO9w+hVTEiMSVMXw6UzoalWPu5tVhaZkGidwe294Shs7jhclpg9h/C+4d6MB45NaVf8yf/hD9/YBVuWrEYNXlurLjv9/DA3WtxU5MbibbN+LjLwkxlKT734IP46u/dg9+5cy3WrF6JlTc0Ya67Cos+8xmsv3sN1jTmYsfeZvQPp4/X7JuPlbffg68+fB++cPc6rL11FW5dfSNuWrYQdb5caBkpRoaHEJjC8JlyYPnqtbjtxgbkmSQEWl7HEz/biuZe5veZFqpGPoFt4Xo05YrB/TLiEx34xXt9U6BMItTVij2//hCHM5sgGcLg0Bj0ecWonVsKu9UBl74DOw+1o2fk0qmc9iRJ5JIioRYhXARDMchCx/Ar4rOR8FRWVKCosBA65p5iALDG6eY60Y3DjfRmvs4RG6tty8rKUFJSAoOBDmq2QMOCxsVPYLisYDFVOagpq0JTuZP7jGHg8E5seXcX2oZDrCytKLnhJtQwVJ0+5MPGijbP60Z+UTmabrsDi3wuGLRi0LLIrbVwFlRj3f0P4qHPX48quiESEYyNjCGoOFG3djGWXM9zwO3zPC7oJwep5LEo+eLX8Jdfvx3XVXthoGsPdnXzYsd4TgpQd+Pt+Poffxn33FgJc3qLc6gcHkcxHBZx06Yw2rWPRecYr8KZ+vBXG/CTZ57HT3/6El77sD+z9AIaO4b9LUfQMioqHA1yihphsnvS6y5R0w5lIpkifxpoCZZMEEehR3J4QA22VZWV+O53v4uHH34YZaWlage6OpJcyThRirlJKAAdga6rq8MjjzyCr37lKwxj1dCybTISRoB55+ndQhIjrph+a3kqUV7bhHKXGKw5gIN7erHvzd1oaetHkFfRXNiIWxvscJgy7U8X31QnBXFk62t4+qkNePbld7Czz4XSBTfh9tVMOQwyQoMt+M0bL+CJx5/GE0+8gE27OzARl3B6b+rcW+7Bl1bVIc+ihexvx9tP/RSP/+gpPPbks9iwtYNA6+FkarP23tuwpDiz0VnlhNnIcKyyHoK/OUEXVFecoa53f4knf/wTPPnUs3jh7RN+eEF1jIfQHYioubbe4YbPaEamRrwkXXEoxagfEaaTySRkuqToNBfLjDotFMK5TWvD2I73kRodZPFgxuLFi1XgNCy7U33dSHU086Bo/aI6jweZYx5Dqv84rGYT6uvrMW/ePJi5r0TbJ6waB9B2lkJHfK9HSTEExViUXPTzbz2K5pahfmEJbCQk1NeMvce70dd3GDta2jEQ5DHp89D02SZYnWf3JoU3Uf/+5/HD/3wcP/iPJ/HE06/jo9E8FDA18Tl4jKShefu7ePrJ5/DCzzfipeefw+Mbt+HAwGmhFBVYtWIeih2MCIiie+tP8N9PvoxfvfU2Xvv58yrwuwZ4K+pM8FY0YhWr5XOL0YeOnc5u4oh08DwH1RVXTmFe72gy3U9JICu0+rNU7xevKw5likAe72hHe0sL/ON+RJlLxgmmmSFXT5je0bqw9XAzBt97E4ljh5HsbkOy8xjih3cjtu0tyIPtLHKEuwou40h1HeHyt5H4ZD/btSLZ0YLo/h3o/PA9bBoM4BiD6dTBGWIuyUKhp6MTh3btQEx8A/JiZMhHdTkLClagGiWMviNH0Ns1wNsjyv10oK1fFBUa5NZ9Bjd4HWA9cIYUOYHBY6/iNy10+4zsdhNqKt1qiE0GBnG0uRlH+sSAE6EYK9VxDAZjp0FJt/Ywnxb2mRjGgZe2oXPyIQNv3kjHR3j16BhfMK2xeOCtakyv+xR1aqy6PF1xKBPxOI7s3Y3tW9/FaP+gOvwsEInBqNfTLXXo1xjxbNSI97d/jMgbP0PkzRfUKbb5RSSbtzMChk90oEusZKXIMJL7tyL6lmj3PMKbnkfv//4Sbx5tw+a4DqNSJgfLSMtwLkfi2P/xR9iy8ZcIBy/OFmxMH6oX1yJf0BMPIaZn1btkDe684zbcWuGAQU4iIazAUYX1t/hYjZ/6vmkxj5TDmfm0TFoJHmP6eUgs0oeJQAtRvIDm5SPHoU8/bYn70d9GIKekI8mUgqM94/Q9niPm4XrT+XyJEYvpUJppIyzVOugc6oorJpON+zUb0ilINIyWVAJ+dc2l6YpDKUL2xOgIhjo7kBifgJYnMBSNqdX35Hk9KpmwNSJD6TmE1LGdSLXtgsJcS8O4omGBcELCLYVrxkah9B2B3LoLcvtuHB88jh28Ij0sR04fwsZgBU0ohLHuTvR3d9G5z1uaZmRlTluBRbX5MIvdae0oWXIz7nr49/H1Rzg9dDOaSgmmWCfZULFiBSqYepyeB15QBFtJXRDJU0WgznhIIgiLJUSScxEaRyQWYLQS8xbeU4T4HFA23PFF/OEffB1/+OhX8dCdSzNLL6zKHBvKnBb1SiQmBtEdDTF7vXRdcShV8aTJvGMk/wQMtBfhlsP+IMJ0UZFfCpB6JeZLWlGZs5qU4iqMatF9uvhJxXLRVtKwnSaBIC1kglXtqR0zaZfUJ9huYhwKT8wp9nI+5RajsHExqvMyT3iZqzndXpSUFp2Y3HYjC670anPZYty2wATT2R4In6YYc9tR3pBCBrMXZluFOn9edYwjFKHDiXmTE4XuU288rVaD8iKH2gsgnj+LJy3nVgf6xrsxFhJnS4vc0kXIs7rVnpBT5cQNt92LB75wD+6///O4dXFOZvkFlCfy/PmYkyP2GMPAsb0IjQ2l112ipgdKoRRPqn8M2mAIerpllEAmWYlPYhLiCRLzIndUk3AtX7u8jDCWzILMShNfWxieMu3ERDSREE970q1UiW+IGxQNdHw/eXw4PRTuIpVf4sHiJdXIIWTyRCc2bngc3/72d86YXtrWBr/gy1SAxWsWQp8Jy+eTPxzH0d50qNU5CjGvbC7qrel1QlYLiwKj9lTXje5B50AICeFuunw03DVXfWyalhZm/SLcVudVwYpHxzDSsy296qwKYm9LF/NYv+qsNt9K3HFTFbzO07CcdyeW1blgtVkZihMYad6VWXEe2UuxZO0dWHdjHXINvOQTx7H9gzb09l1kHn8OTdvIc1UEUyJAOpMVKRY5qSm3gI354r36kcwoFTalHY47S2BavAq6zJe/NL56xCoWMU0JwxAcUZcJNafM2CHbMa7o0mDzn56Qmuku0mAvlAkWARdddXtRU7cO997dxNxPwXj7Fmx85Tls+qAVnZ3dp0zNOXVYUV+KPOZPFqcRA698gOZonGHvQSwvMdK1WH0f3IBXpzAiR/Ww6cqwZFklXCYjXLlu5DlZ9DH8l8xnirD+VtxY44VNz5MT6sXGzR+jd7AL3e4G3NxUDJfRAHt5OUoZIUIp8ax5Ke752pewrjGPThnDyCc78IvH3sLR88TL6FgQjsI5LLiK4bRaUcD9+Qo9yLEa4Sitw43r7sKXv3grFpXaoJcUBNu24F///W30RqY+ZkyPX0hZcuFbuAjLV96Cz99zB+5ctQBzC6zMuQNoffdlvPj6R2geTlxWz/H0QslQrcSjDL16gmlDkgRO/gqGTUrhTt04TIRTKMUw1zbCatpagsKV62FsWIGgtwoHjh7D6MGPUTilx/qwbMFO2Qa/oiWONBM6pDWuQDM0CGW4n7n9xbskinyou+tu3NXkhl72o3Xz+3j79b3oOSORIzPHvVi8ohblXjNDsQvGIRZcR6Kov/3cUCIVhZ+Jf7KsDkt9ThYFLhRVzUPTkqVYdv0izK8sgMusUz/HSShHEegegK2iCbWlTlgZbn1za7HohmW4eeV1WFRfBIdeRnjoE2ze8AO8tCt4Zt45VfEg+ofCMBeUYU6RGw6Xmx+7AvULFmHZsqW4flE9akqYDvC+UMaa8dw//Bs2knIZU6HUQG/lsdfWoKGpHg0NNYS8CB6nCTrm/Ee2PI8fb3gDH7cHL3sk1fRCKSQcSwzKIJh6o3BMhl1eASthvJ1Q2gmnkDDRWCSMH7/1AZ564128vnUbXnrlFxg7uAM35GjoMidD5QFCuSNlQ5ihTE8gLbwiuuEhyAM96R/DumgZUF61gDnU7ZiXw/RhvBObt7yL1/b0nPWJByI98Cxcjvm+PIZQA9y2FDa9sR/l6x44N5S8tIngEPp7BhB3lKOqxA27xQybwwGHIYHuo310QAlWu4kF2iSUE8Le0La/BePmAvjKC5DrtMPpcsHloCvxnPk7duGVpx7HU5vbMX7Be1BBjAVIy95WjCh2FBSJ/Vlhs3Of3J/FxPIwGUHv7tfxw7/4T7zyST/CKlhToRSjrnS8GZlLm40wGrSMAuPoPvgRXnnyZ3jmxfewtzsABqvL1sz9bIveCG1RKeDOR9ikQY42jv8wtaFKG8004DVnzvl22xAe23McI9EkfA4Tfr+hEGsrPSwy0rGf6SmeT+ThmYQXAYYzU4xlkwrkcSgx5jLpvo+LFMM+c9ac3Bzwuqid3/6JCUwEzw22NdcDF8OemnYkQujrp9t7CpHDz0QqEQ30YvBkN+UJSToDrA4XyuaUo7J6DsuKANpa29E252Z8+4t34rNlvOx9O/DIX/wAOw52ZrZi/ugkiHYz5l53A0ptvKHlKIY/2YWDxyMI8Fj9pz2HP7+4PztvBrsFcxrno9xjh8gakmPt2H6gD5GQH+NDfpzMCJl66XPgLTSfpTASHzeFBM95yM9qO3Z5IXuqZg5KIZ0eWkIp5eXDaTfg7y2tqNWzSs8UNuJAwvEkOiciGAjFUEwoyxxmAnOyDIjRZl+MefBylFCGWTgN9kEZZdhmIZXew9UoJ2oXrsTqpRp8/Opr2DcmOq5kFn4FWPXwN/DNh27CHLuEwOGX8O2/3YA9R0/mz5MSeXa6+leQSogRV+riS5ZWz5SKVbw484qcRCx+mTu8gppZKIUkngiLDQUFHvxjwQjKDXGIbyyq1aX4j4CKQcHC8MT8ZNEpupLErUhjxK8CTrw0alIHm4qfBLy6f3jAgKKGm/G173wL66t0GOtqxYHtu9Ee1KGg4TosbfDBKx4npkaw/cl/wD+/sAtt41frzTUzSsfEmRRDnABJ39+pfnlM0CeLvkzSJr6LI358AEleFMZpheFcTqSXqevYTsuCyBoc4/bdgBi8cdX/EkYcscQIxqIJaJhT51c1YtUXHsJXvvYg1i+vRgErcY0SYoH1NH7060No/38OpND0FzpnkXC/hXYN1hQynBs0LHzSfY6ScEi6oRhMQbtUJ/EdHWGS6qWio4qOY39URos/iREBqlh+lSsy0kd33IGWEKF058JpY8UqMpJkDGOdR7Dxse/hX555D0cHr0CVMAs04+FbPKqrsGjxFVarC/K1al95mM4oorRaK5wg8KRYnCIhS2pOJTpPhv0y3uxJ4K3hJHpjzM1m9BNkNd2a8fCtoyu69cDhYBK/GU2o/IkCMiqitmjAKltD+iYnha/F05sYHZPGiGH+b18ghQmSaBaPHzM5Z1azRzMOZYRw7fCn8IuBBFrTnWGIErCIGLjBvynhlBmJOQFjlOsEkKLNeELBzokkNo8k1e2ZcmY1yzTjUArQVMAIW5AQCgbDhE24ZYhWSeZOSKwTQIa5XIRo4abiteigjXJ7sWxK86xmiWYcykkJgxNwCQgFdAlCJpxy8ocwBGxiEsW4cMg4JwGkAFO0nWKoWc0yfWpQCqgmYRN/yRmCJDQlHFA4KedFG/EcNSJgzbSPcRIg87+sZqlmHErxhmI0tl0vwcZJuKU/LnJJEb7T8ImwfiyQ7u4REIrQLkK++JqMgNeqk2DltgbuLFvnzD7NKJQCIFExF1skLMjRYq5dg85QCqMkTqwL0AIFlKMxFkMsZASQUcIYFlByGqZtCpes4nbzHBp4TFkwZ6Nm3Cn1dEmanArTGB1y32iK7ichQBqHCWOcVjhC+FpYoYvXIpSPkkw/y2zhqO2BlAqv6FoyaKT0wIisZpVmFEqanFrUdIcVHJmQsX8shd6wrHaeC9hMdFEBYYtfRl9EUcFUl3HDrpCMCcLYFVJwaFzGUbYfiKa7isR+s5o9mvHHjCJ3FOCJAkaE53TghvqDA06DhD4C+/5AUoVVuKZNp1GhHKRr9hPUvoiszgvXFIMzuJusZplmfpTQFIkQ7iKIouAxi5FC9LzxODDEcC06xc06wGvSqOvFa1F9i9Atpmyn+ezVpwql8EjxmHAyLRQHIqrrqQck1k/NMQSLoqvoUzvorKZdM17oTJUASw3nmUnMi2VTJSCdXC+m06HNavbpU4Uyq6zOpiyUWV11ykKZ1VWnLJRZXXXKQpnVVacslFldZQL+DxY5nEMOeQlGAAAAAElFTkSuQmCC;" vertex="1" parent="1">
          <mxGeometry x="119.00000000000003" y="199" width="248.91" height="89" as="geometry" />
        </mxCell>
        <mxCell id="nRbIThMoSpIRHnOlbc1B-13" value="" style="shadow=0;dashed=0;html=1;strokeColor=none;fillColor=#4495D1;labelPosition=center;verticalLabelPosition=bottom;verticalAlign=top;align=center;outlineConnect=0;shape=mxgraph.veeam.2d.web_ui;" vertex="1" parent="1">
          <mxGeometry x="614" y="161.5" width="154" height="164" as="geometry" />
        </mxCell>
        <mxCell id="nRbIThMoSpIRHnOlbc1B-19" value="EC2 instance contents" style="points=[[0,0],[0.25,0],[0.5,0],[0.75,0],[1,0],[1,0.25],[1,0.5],[1,0.75],[1,1],[0.75,1],[0.5,1],[0.25,1],[0,1],[0,0.75],[0,0.5],[0,0.25]];outlineConnect=0;gradientColor=none;html=1;whiteSpace=wrap;fontSize=12;fontStyle=0;container=1;pointerEvents=0;collapsible=0;recursiveResize=0;shape=mxgraph.aws4.group;grIcon=mxgraph.aws4.group_ec2_instance_contents;strokeColor=#D86613;fillColor=none;verticalAlign=top;align=left;spacingLeft=30;fontColor=#D86613;dashed=0;" vertex="1" parent="1">
          <mxGeometry x="46" y="165" width="517" height="165" as="geometry" />
        </mxCell>
      </root>
    </mxGraphModel>
  </diagram>
</mxfile>
